<svg xmlns="http://www.w3.org/2000/svg" viewBox="0 0 1024 1024"><title>github</title><path d="M512,0C229.12,0,0,229.25,0,512,0,738.24,146.69,930.11,350.08,997.76c25.6,4.8,35-11,35-24.64,0-12.16-.45-44.35-.64-87C242,917,212,817.41,212,817.41c-23.3-59.14-57-74.88-57-74.88-46.4-31.74,3.58-31.1,3.58-31.1C210,715,237,764.16,237,764.16c45.7,78.27,119.87,55.68,149.12,42.56,4.61-33.09,17.79-55.68,32.45-68.48-113.73-12.8-233.22-56.83-233.22-253,0-55.87,19.84-101.57,52.67-137.41-5.76-12.93-23-65,4.48-135.49,0,0,42.88-13.76,140.8,52.48,41-11.39,84.48-17,128-17.28,43.52.26,87,5.89,128,17.28,97.28-66.24,140.16-52.48,140.16-52.48,27.52,70.53,10.24,122.56,5.12,135.49,32.64,35.84,52.48,81.54,52.48,137.41,0,196.67-119.68,240-233.6,252.61C621.38,753.22,638,784.58,638,832.58c0,68.48-.64,123.52-.64,140.16,0,13.44,9,29.44,35.2,24.32C877.44,929.92,1024,737.92,1024,512,1024,229.25,794.75,0,512,0Z"/></svg>