<svg xmlns="http://www.w3.org/2000/svg" viewBox="0 0 183.8 26.68"><title>Frictionless Data</title><polygon class="a" points="0.15 13.59 2.28 13.59 2.28 7.77 8.02 7.77 8.02 6 2.28 6 2.28 1.98 9.14 1.98 9.14 0.1 0.15 0.1 0.15 13.59"/><path class="a" d="M19.64,7.88A3.73,3.73,0,0,0,20.48,7,4.59,4.59,0,0,0,21,5.79a4.5,4.5,0,0,0,.19-1.31,4.31,4.31,0,0,0-.31-1.61A4.69,4.69,0,0,0,20,1.47a4.31,4.31,0,0,0-1.32-1A3.75,3.75,0,0,0,17,.09H11.15V13.59h2.13V8.89H16.4l2.93,4.69h2.41L18.56,8.46A3.46,3.46,0,0,0,19.64,7.88ZM17.83,6.81A1.72,1.72,0,0,1,17,7H13.28V2h3.61a1.74,1.74,0,0,1,.81.2,2.26,2.26,0,0,1,.68.54,2.8,2.8,0,0,1,.48.8,2.62,2.62,0,0,1,.18,1,3,3,0,0,1-.15,1,2.8,2.8,0,0,1-.42.81A2,2,0,0,1,17.83,6.81Z"/><rect class="a" x="23.71" y="0.09" width="2.13" height="13.49"/><path class="a" d="M37.46,10.56a4,4,0,0,1-.89.69,3.78,3.78,0,0,1-1,.4,4.33,4.33,0,0,1-1,.13,3.77,3.77,0,0,1-1.75-.41,4.41,4.41,0,0,1-1.38-1.09,5.09,5.09,0,0,1-.9-1.58,5.49,5.49,0,0,1-.32-1.88,5.78,5.78,0,0,1,.28-1.75,5,5,0,0,1,.82-1.58,4.14,4.14,0,0,1,1.34-1.13,3.88,3.88,0,0,1,1.86-.43,5,5,0,0,1,1,.1,3.81,3.81,0,0,1,1,.35,3.34,3.34,0,0,1,.87.67,3.83,3.83,0,0,1,.69,1L39.69,3a5.32,5.32,0,0,0-2-2.13A5.84,5.84,0,0,0,34.56,0,6.24,6.24,0,0,0,31.8.61a6.47,6.47,0,0,0-2.06,1.55,6.7,6.7,0,0,0-1.28,2.17,7,7,0,0,0,0,5,7.3,7.3,0,0,0,1.33,2.22,6.84,6.84,0,0,0,2,1.59,5.6,5.6,0,0,0,2.6.61,6.64,6.64,0,0,0,1.62-.21,6.82,6.82,0,0,0,1.57-.61,5.79,5.79,0,0,0,1.33-1,4.16,4.16,0,0,0,.91-1.34l-1.77-1A3.47,3.47,0,0,1,37.46,10.56Z"/><polygon class="a" points="40.51 1.98 45.01 1.98 45.01 13.59 47.16 13.59 47.16 1.98 51.64 1.98 51.64 0.1 40.51 0.1 40.51 1.98"/><rect class="a" x="53.44" y="0.09" width="2.13" height="13.49"/><path class="a" d="M68.92,2.17a6.61,6.61,0,0,0-2-1.57A5.76,5.76,0,0,0,64.26,0a6,6,0,0,0-2.59.56,6.48,6.48,0,0,0-2.05,1.51,7.16,7.16,0,0,0-1.36,2.18,6.88,6.88,0,0,0-.49,2.58,7.11,7.11,0,0,0,.47,2.53,7,7,0,0,0,1.32,2.19,6.59,6.59,0,0,0,2,1.54,6.24,6.24,0,0,0,5.21,0,6.65,6.65,0,0,0,2.06-1.5,6.8,6.8,0,0,0,1.36-2.18,7,7,0,0,0,0-5.08A7.2,7.2,0,0,0,68.92,2.17Zm-.69,6.46a5.08,5.08,0,0,1-.84,1.58,4.27,4.27,0,0,1-1.34,1.13,3.75,3.75,0,0,1-1.82.43,3.87,3.87,0,0,1-1.79-.41,4.24,4.24,0,0,1-1.36-1.09,5,5,0,0,1-.86-1.58,5.69,5.69,0,0,1-.3-1.84A5.62,5.62,0,0,1,60.22,5a5,5,0,0,1,.84-1.57,4.35,4.35,0,0,1,1.35-1.11,4,4,0,0,1,3.58,0,4.33,4.33,0,0,1,1.35,1.08A4.93,4.93,0,0,1,68.21,5a5.77,5.77,0,0,1,0,3.64Z"/><polygon class="a" points="82.29 9.82 74.57 0.1 72.9 0.1 72.9 13.59 75.03 13.59 75.03 4.08 82.67 13.59 84.43 13.59 84.43 0.11 82.29 0.11 82.29 9.82"/><polygon class="a" points="89.6 0.1 87.47 0.1 87.47 13.59 96.84 13.59 96.84 11.71 89.6 11.71 89.6 0.1"/><polygon class="a" points="100.7 7.58 106.72 7.58 106.72 5.81 100.7 5.81 100.7 1.98 107.65 1.98 107.65 0.1 98.57 0.1 98.57 13.59 107.82 13.59 107.82 11.71 100.7 11.71 100.7 7.58"/><path class="a" d="M118,7.22a5.28,5.28,0,0,0-1.4-.74,16.87,16.87,0,0,0-1.85-.55l-1.46-.39a4.78,4.78,0,0,1-1-.42,1.71,1.71,0,0,1-.62-.55,1.48,1.48,0,0,1-.2-.81,1.64,1.64,0,0,1,.64-1.37,3.24,3.24,0,0,1,2-.49,5.28,5.28,0,0,1,1.19.13,6.16,6.16,0,0,1,1.06.34,5.57,5.57,0,0,1,.85.45,3,3,0,0,1,.55.45l1-1.75a8.41,8.41,0,0,0-2-1.08A7.11,7.11,0,0,0,114.13,0a6.78,6.78,0,0,0-1.94.27,4.52,4.52,0,0,0-1.55.79,3.76,3.76,0,0,0-1,1.29,3.92,3.92,0,0,0-.38,1.76,3.26,3.26,0,0,0,.26,1.36,2.81,2.81,0,0,0,.75,1,4.4,4.4,0,0,0,1.25.71,16,16,0,0,0,1.76.56q.87.23,1.56.44a6.36,6.36,0,0,1,1.16.46,2.21,2.21,0,0,1,.73.6,1.39,1.39,0,0,1,.26.86,1.44,1.44,0,0,1-.68,1.29,3.61,3.61,0,0,1-1.94.44,6.13,6.13,0,0,1-1.5-.18,9.44,9.44,0,0,1-1.34-.44,6.51,6.51,0,0,1-1.08-.56,4.55,4.55,0,0,1-.71-.55l-1,1.82a8.51,8.51,0,0,0,2.59,1.36,9.56,9.56,0,0,0,3,.46,8.12,8.12,0,0,0,1.92-.22,4.72,4.72,0,0,0,1.57-.68,3.32,3.32,0,0,0,1.06-1.21,3.75,3.75,0,0,0,.39-1.77,3.48,3.48,0,0,0-.31-1.55A3,3,0,0,0,118,7.22Z"/><path class="a" d="M129.63,7.22a5.28,5.28,0,0,0-1.4-.74,16.87,16.87,0,0,0-1.85-.55l-1.46-.39a4.78,4.78,0,0,1-1-.42,1.71,1.71,0,0,1-.62-.55,1.48,1.48,0,0,1-.2-.81,1.64,1.64,0,0,1,.64-1.37,3.24,3.24,0,0,1,2-.49,5.28,5.28,0,0,1,1.19.13,6.16,6.16,0,0,1,1.06.34,5.57,5.57,0,0,1,.85.45,3,3,0,0,1,.55.45l1-1.75a8.41,8.41,0,0,0-2-1.08A7.11,7.11,0,0,0,125.74,0a6.78,6.78,0,0,0-1.94.27,4.52,4.52,0,0,0-1.55.79,3.76,3.76,0,0,0-1,1.29,3.92,3.92,0,0,0-.38,1.76,3.26,3.26,0,0,0,.26,1.36,2.81,2.81,0,0,0,.75,1,4.4,4.4,0,0,0,1.25.71,16,16,0,0,0,1.76.56q.87.23,1.56.44a6.36,6.36,0,0,1,1.16.46,2.21,2.21,0,0,1,.73.6,1.39,1.39,0,0,1,.26.86,1.44,1.44,0,0,1-.68,1.29,3.61,3.61,0,0,1-1.94.44,6.13,6.13,0,0,1-1.5-.18,9.44,9.44,0,0,1-1.34-.44,6.51,6.51,0,0,1-1.08-.56,4.55,4.55,0,0,1-.71-.55l-1,1.82a8.51,8.51,0,0,0,2.59,1.36,9.56,9.56,0,0,0,3,.46,8.12,8.12,0,0,0,1.92-.22,4.72,4.72,0,0,0,1.57-.68,3.32,3.32,0,0,0,1.06-1.21,3.75,3.75,0,0,0,.39-1.77,3.48,3.48,0,0,0-.31-1.55A3,3,0,0,0,129.63,7.22Z"/><path class="a" d="M147.35,2.07A5.89,5.89,0,0,0,145.3.63a7.14,7.14,0,0,0-2.86-.53h-4.79V13.59h4.79a7.3,7.3,0,0,0,2.72-.48,5.86,5.86,0,0,0,2.07-1.37,6,6,0,0,0,1.32-2.13A7.89,7.89,0,0,0,149,6.82a8.05,8.05,0,0,0-.42-2.61A6,6,0,0,0,147.35,2.07Zm-.79,6.69a4.42,4.42,0,0,1-.84,1.55,3.9,3.9,0,0,1-1.39,1,4.59,4.59,0,0,1-1.89.37h-2.66V2h2.66a4.57,4.57,0,0,1,1.86.36,4,4,0,0,1,1.39,1,4.28,4.28,0,0,1,.87,1.53,6.22,6.22,0,0,1,.29,2A6.32,6.32,0,0,1,146.56,8.76Z"/><path class="a" d="M154.75.09l-5.36,13.49h2.26l1.41-3.67h5.21l1.42,3.67h2.24L156.61.09Zm-1.31,8.25,2.24-5.79,2.17,5.79Z"/><polygon class="a" points="172.18 0.1 161.04 0.1 161.04 1.98 165.54 1.98 165.54 13.59 167.69 13.59 167.69 1.98 172.18 1.98 172.18 0.1"/><path class="a" d="M178.48.09h-1.86l-5.36,13.49h2.26l1.41-3.67h5.21l1.42,3.67h2.24Zm-3.17,8.25,2.24-5.79,2.17,5.79Z"/><path class="a" d="M4.61,23.54a3.08,3.08,0,0,0-.8-.36q-.47-.14-1.05-.26t-1-.24a2.38,2.38,0,0,1-.67-.29A1.08,1.08,0,0,1,.73,22a1.32,1.32,0,0,1-.12-.61,1.43,1.43,0,0,1,.51-1.15,2.53,2.53,0,0,1,1.64-.43,3.16,3.16,0,0,1,1.1.17,2.21,2.21,0,0,1,.86.61l.19-.26a2.66,2.66,0,0,0-1-.64,3.37,3.37,0,0,0-1.21-.2,3.73,3.73,0,0,0-1,.13A2.32,2.32,0,0,0,.94,20a1.69,1.69,0,0,0-.51.61,1.87,1.87,0,0,0-.18.83,1.54,1.54,0,0,0,.15.73,1.34,1.34,0,0,0,.46.49,2.76,2.76,0,0,0,.75.33q.45.13,1,.25a10.45,10.45,0,0,1,1,.26,2.91,2.91,0,0,1,.72.32,1.22,1.22,0,0,1,.43.45,1.37,1.37,0,0,1,.14.64A1.23,1.23,0,0,1,4.38,26a2.92,2.92,0,0,1-1.58.37,3.83,3.83,0,0,1-1.45-.26,3.36,3.36,0,0,1-1.14-.77L0,25.6a3.86,3.86,0,0,0,1.26.82,4.19,4.19,0,0,0,1.53.26,4.29,4.29,0,0,0,1-.12,2.37,2.37,0,0,0,.8-.34,1.55,1.55,0,0,0,.5-.57,1.71,1.71,0,0,0,.17-.79,1.59,1.59,0,0,0-.18-.79A1.53,1.53,0,0,0,4.61,23.54Z"/><polygon class="a" points="6.29 19.85 8.95 19.85 8.95 26.63 9.3 26.63 9.3 19.85 11.96 19.85 11.96 19.54 6.29 19.54 6.29 19.85"/><path class="a" d="M15.16,19.53l-3.06,7.1h.38l1-2.45h3.56l1.05,2.45h.37l-3-7.1Zm-1.53,4.35L15.31,20,17,23.88Z"/><polygon class="a" points="25.63 26.08 20.41 19.54 20.15 19.54 20.15 26.63 20.5 26.63 20.5 20.19 25.64 26.63 25.98 26.63 25.98 19.54 25.63 19.54 25.63 26.08"/><path class="a" d="M33.23,20.57a2.94,2.94,0,0,0-1-.76,3.6,3.6,0,0,0-1.47-.28H28.4v7.1h2.32a3.63,3.63,0,0,0,1.39-.25,3,3,0,0,0,1.06-.72,3.2,3.2,0,0,0,.67-1.12,4.31,4.31,0,0,0,.23-1.46,4.41,4.41,0,0,0-.21-1.37A3.21,3.21,0,0,0,33.23,20.57Zm.29,3.78a2.86,2.86,0,0,1-.57,1,2.62,2.62,0,0,1-.94.68,3.21,3.21,0,0,1-1.3.25h-2V19.85h2a3.22,3.22,0,0,1,1.28.24,2.66,2.66,0,0,1,.94.67,2.85,2.85,0,0,1,.58,1,4.09,4.09,0,0,1,.19,1.29A4.19,4.19,0,0,1,33.53,24.36Z"/><path class="a" d="M38,19.53,35,26.63h.38l1-2.45H40l1,2.45h.37l-3.05-7.1ZM36.5,23.88,38.18,20l1.67,3.91Z"/><path class="a" d="M46.94,23.62a2,2,0,0,0,.55-.48,2.18,2.18,0,0,0,.36-.66A2.42,2.42,0,0,0,48,21.7a2.17,2.17,0,0,0-.15-.79,2.25,2.25,0,0,0-.42-.7,2.15,2.15,0,0,0-.64-.5,1.79,1.79,0,0,0-.82-.19H43v7.1h.35V23.89h2.48l1.76,2.74H48l-1.78-2.78A1.71,1.71,0,0,0,46.94,23.62Zm-3.57,0V19.85h2.56a1.46,1.46,0,0,1,.66.16,1.82,1.82,0,0,1,.54.41,2,2,0,0,1,.36.59,1.83,1.83,0,0,1,.14.7,2.15,2.15,0,0,1-.12.69,2,2,0,0,1-.33.6,1.62,1.62,0,0,1-.51.42,1.44,1.44,0,0,1-.67.16Z"/><path class="a" d="M54.8,20.57a2.94,2.94,0,0,0-1-.76,3.59,3.59,0,0,0-1.47-.28H50v7.1h2.32a3.62,3.62,0,0,0,1.39-.25,3,3,0,0,0,1.05-.72,3.2,3.2,0,0,0,.67-1.12,4.3,4.3,0,0,0,.24-1.46,4.42,4.42,0,0,0-.21-1.37A3.21,3.21,0,0,0,54.8,20.57Zm.29,3.78a2.86,2.86,0,0,1-.57,1,2.62,2.62,0,0,1-.94.68,3.21,3.21,0,0,1-1.3.25h-2V19.85h2a3.22,3.22,0,0,1,1.28.24,2.66,2.66,0,0,1,.95.67,2.85,2.85,0,0,1,.58,1,4.09,4.09,0,0,1,.2,1.29A4.19,4.19,0,0,1,55.1,24.36Z"/><path class="a" d="M61.61,23.54a3.08,3.08,0,0,0-.8-.36q-.47-.14-1-.26t-1-.24a2.37,2.37,0,0,1-.67-.29,1.09,1.09,0,0,1-.39-.41,1.33,1.33,0,0,1-.12-.61,1.43,1.43,0,0,1,.51-1.15,2.53,2.53,0,0,1,1.64-.43,3.16,3.16,0,0,1,1.1.17,2.2,2.2,0,0,1,.86.61l.19-.26a2.65,2.65,0,0,0-.95-.64,3.37,3.37,0,0,0-1.21-.2,3.73,3.73,0,0,0-1,.13,2.33,2.33,0,0,0-.79.38,1.69,1.69,0,0,0-.5.61,1.86,1.86,0,0,0-.18.83,1.54,1.54,0,0,0,.16.73,1.32,1.32,0,0,0,.46.49,2.75,2.75,0,0,0,.75.33q.44.13,1,.25a10.45,10.45,0,0,1,1,.26,2.9,2.9,0,0,1,.72.32,1.21,1.21,0,0,1,.42.45,1.36,1.36,0,0,1,.14.64A1.23,1.23,0,0,1,61.38,26a2.92,2.92,0,0,1-1.58.37,3.83,3.83,0,0,1-1.45-.26,3.35,3.35,0,0,1-1.14-.77L57,25.6a3.87,3.87,0,0,0,1.26.82,4.19,4.19,0,0,0,1.53.26,4.29,4.29,0,0,0,1-.12,2.37,2.37,0,0,0,.79-.34,1.56,1.56,0,0,0,.5-.57,1.71,1.71,0,0,0,.17-.79,1.59,1.59,0,0,0-.18-.79A1.53,1.53,0,0,0,61.61,23.54Z"/><path class="a" d="M69.16,19.53l-3.06,7.1h.38l1-2.45h3.56l1,2.45h.37l-3.05-7.1Zm-1.53,4.35L69.31,20,71,23.88Z"/><polygon class="a" points="79.63 26.08 74.41 19.54 74.15 19.54 74.15 26.63 74.5 26.63 74.5 20.19 79.64 26.63 79.98 26.63 79.98 19.54 79.63 19.54 79.63 26.08"/><path class="a" d="M87.24,20.57a2.94,2.94,0,0,0-1-.76,3.59,3.59,0,0,0-1.47-.28H82.4v7.1h2.32a3.62,3.62,0,0,0,1.39-.25,3,3,0,0,0,1.05-.72,3.2,3.2,0,0,0,.67-1.12,4.3,4.3,0,0,0,.24-1.46,4.42,4.42,0,0,0-.21-1.37A3.21,3.21,0,0,0,87.24,20.57Zm.29,3.78a2.86,2.86,0,0,1-.57,1,2.62,2.62,0,0,1-.94.68,3.21,3.21,0,0,1-1.3.25h-2V19.85h2a3.22,3.22,0,0,1,1.28.24,2.66,2.66,0,0,1,.95.67,2.85,2.85,0,0,1,.58,1,4.09,4.09,0,0,1,.2,1.29A4.19,4.19,0,0,1,87.53,24.36Z"/><polygon class="a" points="92.05 19.85 94.71 19.85 94.71 26.63 95.06 26.63 95.06 19.85 97.72 19.85 97.72 19.54 92.05 19.54 92.05 19.85"/><path class="a" d="M104.25,20.62a3.43,3.43,0,0,0-1-.83,2.9,2.9,0,0,0-1.35-.32,3,3,0,0,0-1.32.29,3.37,3.37,0,0,0-1,.8,3.79,3.79,0,0,0-.7,1.15,3.69,3.69,0,0,0-.25,1.36,3.81,3.81,0,0,0,.24,1.33,3.62,3.62,0,0,0,.68,1.15,3.49,3.49,0,0,0,1,.81,3.07,3.07,0,0,0,2.66,0,3.4,3.4,0,0,0,1-.79,3.75,3.75,0,0,0,.71-3.82A3.79,3.79,0,0,0,104.25,20.62Zm.36,3.65a3.34,3.34,0,0,1-.6,1.05,3.08,3.08,0,0,1-.93.74,2.58,2.58,0,0,1-1.21.29,2.66,2.66,0,0,1-1.2-.27,3,3,0,0,1-.94-.73,3.38,3.38,0,0,1-.61-1,3.47,3.47,0,0,1-.22-1.23,3.52,3.52,0,0,1,.82-2.24,3.09,3.09,0,0,1,.94-.75,2.71,2.71,0,0,1,2.39,0,3,3,0,0,1,.94.72,3.45,3.45,0,0,1,.62,1,3.42,3.42,0,0,1,.23,1.23A3.53,3.53,0,0,1,104.6,24.27Z"/><path class="a" d="M112.29,20.62a3.43,3.43,0,0,0-1-.83,2.9,2.9,0,0,0-1.35-.32,3,3,0,0,0-1.32.29,3.37,3.37,0,0,0-1,.8,3.79,3.79,0,0,0-.7,1.15,3.69,3.69,0,0,0-.25,1.36,3.81,3.81,0,0,0,.24,1.33,3.62,3.62,0,0,0,.68,1.15,3.49,3.49,0,0,0,1,.81,3.07,3.07,0,0,0,2.66,0,3.4,3.4,0,0,0,1-.79,3.75,3.75,0,0,0,.71-3.82A3.79,3.79,0,0,0,112.29,20.62Zm.36,3.65a3.34,3.34,0,0,1-.6,1.05,3.08,3.08,0,0,1-.93.74,2.58,2.58,0,0,1-1.21.29,2.66,2.66,0,0,1-1.2-.27,3,3,0,0,1-.94-.73,3.38,3.38,0,0,1-.61-1,3.47,3.47,0,0,1-.22-1.23,3.52,3.52,0,0,1,.82-2.24,3.09,3.09,0,0,1,.94-.75,2.71,2.71,0,0,1,2.39,0,3,3,0,0,1,.94.72,3.45,3.45,0,0,1,.62,1,3.42,3.42,0,0,1,.23,1.23A3.53,3.53,0,0,1,112.65,24.27Z"/><polygon class="a" points="115.48 19.54 115.13 19.54 115.13 26.63 119.83 26.63 119.83 26.31 115.48 26.31 115.48 19.54"/><rect class="a" x="121.43" y="19.53" width="0.35" height="7.1"/><polygon class="a" points="129.68 26.08 124.46 19.54 124.2 19.54 124.2 26.63 124.55 26.63 124.55 20.19 129.69 26.63 130.03 26.63 130.03 19.54 129.68 19.54 129.68 26.08"/><path class="a" d="M136.13,23.22v.3h1.64v1.54a4,4,0,0,1-1.19,1,2.75,2.75,0,0,1-1.27.31,2.65,2.65,0,0,1-1.18-.27,3.15,3.15,0,0,1-1-.72,3.46,3.46,0,0,1-.64-1,3.33,3.33,0,0,1-.24-1.24,3.68,3.68,0,0,1,.2-1.2,3.37,3.37,0,0,1,.58-1,3,3,0,0,1,.91-.75,2.53,2.53,0,0,1,1.21-.29,3.06,3.06,0,0,1,1.42.32,2.41,2.41,0,0,1,1,1l.29-.15a3.14,3.14,0,0,0-.41-.62,2.38,2.38,0,0,0-.57-.49,2.83,2.83,0,0,0-.76-.32,3.77,3.77,0,0,0-1-.12,2.85,2.85,0,0,0-1.3.3,3.34,3.34,0,0,0-1,.8,3.68,3.68,0,0,0-.67,1.15,3.87,3.87,0,0,0-.24,1.35,3.58,3.58,0,0,0,.25,1.3,3.92,3.92,0,0,0,.69,1.16,3.46,3.46,0,0,0,1.05.83,2.91,2.91,0,0,0,1.34.31,3.25,3.25,0,0,0,2.48-1.21v1.16h.32V23.22Z"/></svg>
