<svg xmlns="http://www.w3.org/2000/svg" viewBox="0 0 52.15 56.65"><title>docs</title><path class="a" d="M46.24,49.83a.83.83,0,0,1-.81.81H14.56a.83.83,0,0,1-.81-.81V12.46a.83.83,0,0,1,.81-.81H33.25V23a1.63,1.63,0,0,0,1.62,1.62H46.24ZM40.63,17.26a44.26,44.26,0,0,1,3.69,4.13H36.5V13.58A45.79,45.79,0,0,1,40.63,17.26ZM47.35,20A46.42,46.42,0,0,0,42.92,15a45.52,45.52,0,0,0-5.07-4.43C35.25,8.62,34,8.4,33.25,8.4H14.56a4.06,4.06,0,0,0-4.06,4.06V49.83a4.06,4.06,0,0,0,4.06,4.06H45.43a4.06,4.06,0,0,0,4.06-4.06V24.64C49.49,23.91,49.27,22.64,47.35,20Z"/><path class="a" d="M31.37,4C28.75,2.12,27.48,1.9,26.75,1.9H8.06A4.06,4.06,0,0,0,4,6V43.33a4.07,4.07,0,0,0,3.25,4V6a.83.83,0,0,1,.81-.81H32.78C32.29,4.74,31.81,4.38,31.37,4Z"/></svg>
